<?xml version="1.0" encoding="UTF-8"?>
<svg width="512" height="512" viewBox="0 0 135.47 135.47" xmlns="http://www.w3.org/2000/svg">
  <path fill="#00897b" d="M99.826 3.527c-1.158-.887-7.975-2.01-11.777-1.013-11.022 2.89-30.322 10.656-37.192 18.036-1.248 1.343-1.786 4.784-2.066 7.14-.138 1.164-.427 5.423-.427 5.423s-.899-3.586-.777-5.447c.092-1.41.73-4.823.73-4.823s-13.54 9.34-15.829 15.74c-.481 1.346-.568 4.324-.514 5.822.044 1.222.407 4.623.481 5.297-.01.008-.018.018-.027.026-.206-.466-1.213-2.799-1.509-4.603-.246-1.505-.194-5.13-.194-5.13s-3.525 3.663-4.275 5.244c-.538 1.133-.896 3.581-.648 4.809.25 1.234 1.98 4.538 1.98 4.538l.133.073c-11.837 13.213-18.619 22.707-22.276 28.459-2.292 3.607-3.647 6.19-4.381 7.72-.463.969-.743 1.649-.896 2.05-.252.664-.515 1.349-.256 2.168l.394 1.248 1.281.286c.645.141 1.585.086 2.423-.986.096-.123.233-.306.411-.547.328-.441.801-1.091 1.405-1.918 3.425-4.693 11.446-15.688 20.325-26.44.926-1.124 4.174-4.877 8.432-9.49 2.14.941 4.439 2.573 5.384 2.445 2.625-.357 7.169-3.295 9.405-4.885 2.095-1.488 7.611-5.524 7.605-7.025-.004-1.054-2.699-1.647-3.645-2.114-1.215-.6-5.007-2.077-5.007-2.077s3.767.69 5.294 1.222c2.41.839 5.924 2.522 5.924 2.522s8.781-6.03 11.508-8.242c5.082-4.127 13.09-10.908 12.732-11.6-.172-.329-2.443-.783-4.309-1.971-1.568-.999-3.096-3.057-3.096-3.057s1.697 1.296 3.754 2.284c2.055.987 4.627 1.17 4.627 1.17s9.674-10.939 13.779-17.417c1.452-2.292 1.397-4.706 1.094-4.938zm-29.142 18.175c-7.912 5.677-11.641 9.547-19.387 16.078-10.872 9.164-24.848 25.229-26.702 27.475-11.953 14.477-22.185 29.15-22.323 29.119-.138-.03 4.081-12.741 29.645-40.76 9.757-10.692 21.995-21.738 32.544-29.373 17.088-12.367 31.266-17.944 31.266-17.944s-11.77 5.883-25.043 15.405z"/>
  <g transform="translate(50.71 74.698)" fill="#00897b">
    <path d="M3.1 6.687L.028 63.56H-6.5l-11.484-56.874h7.695l8.281 46.797L3.1 6.687z"/>
    <path d="M9.235 10.203q0-1.836 1.133-3.047Q11.54 5.906 13.375 5.867q1.836-.039 3.008 1.133 1.21 1.171 1.172 2.968 0 1.797-1.211 3.008-1.172 1.172-2.969 1.21-1.796.04-2.968-1.054-1.172-1.133-1.172-2.93zm5.664 11.093L7.555 63.56H.485L7.83 21.296z"/>
    <path d="M44.82 63.56L34.04 44.03l-5.547 4.96-2.539 14.57H19.23L29.66 3.56h7.11l-6.25 35.82 4.258-4.297 15.039-13.789 9.18.04-19.415 17.93 13.398 24.297z"/>
    <path d="M67.51 10.203q0-1.836 1.133-3.047 1.17-1.25 3.007-1.289 1.836-.039 3.008 1.133 1.21 1.171 1.172 2.968 0 1.797-1.211 3.008-1.172 1.172-2.969 1.21-1.796.04-2.968-1.054-1.172-1.133-1.172-2.93zm5.664 11.093L65.83 63.56h-7.07l7.344-42.265z"/>
  </g>
</svg>
